<svg xmlns="http://www.w3.org/2000/svg" width="720" height="520" viewBox="0 0 720 520" role="img" aria-labelledby="title desc">
  <title id="title">One-Stop Foodservice Supplies</title>
  <desc id="desc">Hero system visual</desc>
  <defs>
    <linearGradient id="bg" x1="0" y1="0" x2="1" y2="1">
      <stop offset="0" stop-color="#f8fbff"/>
      <stop offset=".55" stop-color="#edf6ff"/>
      <stop offset="1" stop-color="#ffffff"/>
    </linearGradient>
    <linearGradient id="card" x1="0" y1="0" x2="1" y2="1">
      <stop offset="0" stop-color="#ffffff"/>
      <stop offset="1" stop-color="#dff0ff"/>
    </linearGradient>
    <filter id="soft" x="-20%" y="-20%" width="140%" height="140%">
      <feDropShadow dx="0" dy="28" stdDeviation="24" flood-color="#075aaf" flood-opacity=".16"/>
    </filter>
    <radialGradient id="orb" cx="50%" cy="40%" r="60%">
      <stop offset="0" stop-color="#73b9ff" stop-opacity=".34"/>
      <stop offset="1" stop-color="#73b9ff" stop-opacity="0"/>
    </radialGradient>
  </defs>
  <rect width="720" height="520" rx="46" fill="url(#bg)"/>
  <circle cx="610" cy="86" r="148" fill="url(#orb)"/>
  <circle cx="94" cy="430" r="130" fill="#cfe7ff" opacity=".32"/>
  
        <g filter="url(#soft)">
          <rect x="116" y="110" width="240" height="180" rx="34" fill="url(#card)"/>
          <rect x="392" y="96" width="204" height="146" rx="30" fill="#ffffff" opacity=".92"/>
          <rect x="392" y="270" width="170" height="116" rx="28" fill="#eaf4ff"/>
          <rect x="150" y="155" width="80" height="56" rx="16" fill="#0a6fdc" opacity=".95"/>
          <rect x="246" y="155" width="64" height="56" rx="16" fill="#b9dcff"/>
          <rect x="148" y="235" width="156" height="18" rx="9" fill="#d7eaff"/>
          <rect x="148" y="271" width="118" height="18" rx="9" fill="#d7eaff"/>
          <path d="M438 151h108M438 188h72" stroke="#0a6fdc" stroke-width="18" stroke-linecap="round" opacity=".7"/>
          <path d="M435 333h82" stroke="#0a6fdc" stroke-width="18" stroke-linecap="round" opacity=".55"/>
        </g>
        
  <g font-family="Inter, ui-sans-serif, -apple-system, BlinkMacSystemFont, Segoe UI, sans-serif">
    <text x="58" y="448" fill="#071b33" font-size="31" font-weight="760" letter-spacing="-.8">One-Stop Foodservice Supplies</text>
    <text x="58" y="482" fill="#58708a" font-size="18" font-weight="520">Hero system visual</text>
  </g>
</svg>