<svg xmlns="http://www.w3.org/2000/svg" width="720" height="520" viewBox="0 0 720 520" role="img" aria-labelledby="title desc">
  <title id="title">Disposable PE Gloves</title>
  <desc id="desc">Individually packed</desc>
  <defs>
    <linearGradient id="bg" x1="0" y1="0" x2="1" y2="1">
      <stop offset="0" stop-color="#f8fbff"/>
      <stop offset=".55" stop-color="#edf6ff"/>
      <stop offset="1" stop-color="#ffffff"/>
    </linearGradient>
    <linearGradient id="card" x1="0" y1="0" x2="1" y2="1">
      <stop offset="0" stop-color="#ffffff"/>
      <stop offset="1" stop-color="#dff0ff"/>
    </linearGradient>
    <filter id="soft" x="-20%" y="-20%" width="140%" height="140%">
      <feDropShadow dx="0" dy="28" stdDeviation="24" flood-color="#075aaf" flood-opacity=".16"/>
    </filter>
    <radialGradient id="orb" cx="50%" cy="40%" r="60%">
      <stop offset="0" stop-color="#73b9ff" stop-opacity=".34"/>
      <stop offset="1" stop-color="#73b9ff" stop-opacity="0"/>
    </radialGradient>
  </defs>
  <rect width="720" height="520" rx="46" fill="url(#bg)"/>
  <circle cx="610" cy="86" r="148" fill="url(#orb)"/>
  <circle cx="94" cy="430" r="130" fill="#cfe7ff" opacity=".32"/>
  
        <g filter="url(#soft)">
          <path d="M254 324c-34-43-40-94-28-142 5-19 26-23 37-8 5-38 41-35 43-2 9-33 44-29 45 4 15-23 48-13 43 22l-12 74c34-15 61 11 41 39-28 41-61 79-98 94-34 14-53-2-71-81z" fill="#e8f5ff" stroke="#0a6fdc" stroke-width="8" opacity=".94"/>
          <path d="M266 177v116M306 168v112M350 178v106M392 202l-18 86" stroke="#8bc6ff" stroke-width="8" stroke-linecap="round"/>
          <rect x="212" y="328" width="156" height="58" rx="20" fill="#fff" stroke="#0a6fdc" stroke-width="6" opacity=".95"/>
        </g>
        
  <g font-family="Inter, ui-sans-serif, -apple-system, BlinkMacSystemFont, Segoe UI, sans-serif">
    <text x="58" y="448" fill="#071b33" font-size="31" font-weight="760" letter-spacing="-.8">Disposable PE Gloves</text>
    <text x="58" y="482" fill="#58708a" font-size="18" font-weight="520">Individually packed</text>
  </g>
</svg>