<svg xmlns="http://www.w3.org/2000/svg" width="720" height="520" viewBox="0 0 720 520" role="img" aria-labelledby="title desc">
  <title id="title">Product Categories</title>
  <desc id="desc">Organized procurement matrix</desc>
  <defs>
    <linearGradient id="bg" x1="0" y1="0" x2="1" y2="1">
      <stop offset="0" stop-color="#f8fbff"/>
      <stop offset=".55" stop-color="#edf6ff"/>
      <stop offset="1" stop-color="#ffffff"/>
    </linearGradient>
    <linearGradient id="card" x1="0" y1="0" x2="1" y2="1">
      <stop offset="0" stop-color="#ffffff"/>
      <stop offset="1" stop-color="#dff0ff"/>
    </linearGradient>
    <filter id="soft" x="-20%" y="-20%" width="140%" height="140%">
      <feDropShadow dx="0" dy="28" stdDeviation="24" flood-color="#075aaf" flood-opacity=".16"/>
    </filter>
    <radialGradient id="orb" cx="50%" cy="40%" r="60%">
      <stop offset="0" stop-color="#73b9ff" stop-opacity=".34"/>
      <stop offset="1" stop-color="#73b9ff" stop-opacity="0"/>
    </radialGradient>
  </defs>
  <rect width="720" height="520" rx="46" fill="url(#bg)"/>
  <circle cx="610" cy="86" r="148" fill="url(#orb)"/>
  <circle cx="94" cy="430" r="130" fill="#cfe7ff" opacity=".32"/>
  
        <g filter="url(#soft)">
          <rect x="120" y="110" width="150" height="120" rx="30" fill="#fff"/>
          <rect x="294" y="110" width="150" height="120" rx="30" fill="#eef7ff"/>
          <rect x="468" y="110" width="150" height="120" rx="30" fill="#fff"/>
          <rect x="120" y="258" width="150" height="120" rx="30" fill="#eef7ff"/>
          <rect x="294" y="258" width="150" height="120" rx="30" fill="#fff"/>
          <rect x="468" y="258" width="150" height="120" rx="30" fill="#eef7ff"/>
          <circle cx="195" cy="170" r="26" fill="#0a6fdc" opacity=".8"/>
          <path d="M336 170h66M543 152v36M525 170h36M160 318h70M338 302l46 42 34-60M511 318h76" stroke="#0a6fdc" stroke-width="14" stroke-linecap="round" stroke-linejoin="round" opacity=".7"/>
        </g>
        
  <g font-family="Inter, ui-sans-serif, -apple-system, BlinkMacSystemFont, Segoe UI, sans-serif">
    <text x="58" y="448" fill="#071b33" font-size="31" font-weight="760" letter-spacing="-.8">Product Categories</text>
    <text x="58" y="482" fill="#58708a" font-size="18" font-weight="520">Organized procurement matrix</text>
  </g>
</svg>