<svg xmlns="http://www.w3.org/2000/svg" width="720" height="520" viewBox="0 0 720 520" role="img" aria-labelledby="title desc">
  <title id="title">Restaurant Scene</title>
  <desc id="desc">Front and back of house</desc>
  <defs>
    <linearGradient id="bg" x1="0" y1="0" x2="1" y2="1">
      <stop offset="0" stop-color="#f8fbff"/>
      <stop offset=".55" stop-color="#edf6ff"/>
      <stop offset="1" stop-color="#ffffff"/>
    </linearGradient>
    <linearGradient id="card" x1="0" y1="0" x2="1" y2="1">
      <stop offset="0" stop-color="#ffffff"/>
      <stop offset="1" stop-color="#dff0ff"/>
    </linearGradient>
    <filter id="soft" x="-20%" y="-20%" width="140%" height="140%">
      <feDropShadow dx="0" dy="28" stdDeviation="24" flood-color="#075aaf" flood-opacity=".16"/>
    </filter>
    <radialGradient id="orb" cx="50%" cy="40%" r="60%">
      <stop offset="0" stop-color="#73b9ff" stop-opacity=".34"/>
      <stop offset="1" stop-color="#73b9ff" stop-opacity="0"/>
    </radialGradient>
  </defs>
  <rect width="720" height="520" rx="46" fill="url(#bg)"/>
  <circle cx="610" cy="86" r="148" fill="url(#orb)"/>
  <circle cx="94" cy="430" r="130" fill="#cfe7ff" opacity=".32"/>
  
        <g filter="url(#soft)">
          <rect x="136" y="124" width="456" height="248" rx="42" fill="#fff" stroke="#d7eaff" stroke-width="6"/>
          <path d="M172 304h382" stroke="#0a6fdc" stroke-width="12" stroke-linecap="round" opacity=".55"/>
          <rect x="204" y="180" width="92" height="92" rx="24" fill="#eef7ff"/>
          <rect x="324" y="160" width="98" height="112" rx="26" fill="#eaf4ff"/>
          <rect x="452" y="196" width="76" height="76" rx="22" fill="#eef7ff"/>
          <path d="M220 224h60M344 208h58M468 234h44" stroke="#0a6fdc" stroke-width="10" stroke-linecap="round" opacity=".65"/>
        </g>
        
  <g font-family="Inter, ui-sans-serif, -apple-system, BlinkMacSystemFont, Segoe UI, sans-serif">
    <text x="58" y="448" fill="#071b33" font-size="31" font-weight="760" letter-spacing="-.8">Restaurant Scene</text>
    <text x="58" y="482" fill="#58708a" font-size="18" font-weight="520">Front and back of house</text>
  </g>
</svg>