<svg xmlns="http://www.w3.org/2000/svg" width="720" height="520" viewBox="0 0 720 520" role="img" aria-labelledby="title desc">
  <title id="title">Wet Wipes</title>
  <desc id="desc">Clean single sachet</desc>
  <defs>
    <linearGradient id="bg" x1="0" y1="0" x2="1" y2="1">
      <stop offset="0" stop-color="#f8fbff"/>
      <stop offset=".55" stop-color="#edf6ff"/>
      <stop offset="1" stop-color="#ffffff"/>
    </linearGradient>
    <linearGradient id="card" x1="0" y1="0" x2="1" y2="1">
      <stop offset="0" stop-color="#ffffff"/>
      <stop offset="1" stop-color="#dff0ff"/>
    </linearGradient>
    <filter id="soft" x="-20%" y="-20%" width="140%" height="140%">
      <feDropShadow dx="0" dy="28" stdDeviation="24" flood-color="#075aaf" flood-opacity=".16"/>
    </filter>
    <radialGradient id="orb" cx="50%" cy="40%" r="60%">
      <stop offset="0" stop-color="#73b9ff" stop-opacity=".34"/>
      <stop offset="1" stop-color="#73b9ff" stop-opacity="0"/>
    </radialGradient>
  </defs>
  <rect width="720" height="520" rx="46" fill="url(#bg)"/>
  <circle cx="610" cy="86" r="148" fill="url(#orb)"/>
  <circle cx="94" cy="430" r="130" fill="#cfe7ff" opacity=".32"/>
  
        <g filter="url(#soft)">
          <rect x="170" y="155" width="390" height="205" rx="44" fill="#fff" stroke="#d7eaff" stroke-width="5"/>
          <path d="M178 180c18 10 30 10 48 0s30-10 48 0 30 10 48 0 30-10 48 0 30 10 48 0 30-10 48 0 30 10 48 0 30-10 48 0" fill="none" stroke="#0a6fdc" stroke-width="5" opacity=".28"/>
          <rect x="236" y="213" width="258" height="88" rx="26" fill="#eaf4ff"/>
          <path d="M286 258h158" stroke="#0a6fdc" stroke-width="16" stroke-linecap="round" opacity=".7"/>
          <path d="M190 153v210M540 153v210" stroke="#b9dcff" stroke-width="8" stroke-dasharray="8 10"/>
        </g>
        
  <g font-family="Inter, ui-sans-serif, -apple-system, BlinkMacSystemFont, Segoe UI, sans-serif">
    <text x="58" y="448" fill="#071b33" font-size="31" font-weight="760" letter-spacing="-.8">Wet Wipes</text>
    <text x="58" y="482" fill="#58708a" font-size="18" font-weight="520">Clean single sachet</text>
  </g>
</svg>